<svg width="28" height="21" viewBox="0 0 28 21" fill="none" xmlns="http://www.w3.org/2000/svg">
<path d="M26.666 2.25104C26.8534 1.50489 26.666 0.955719 25.7643 0.955719H22.7806C22.0207 0.955719 21.6712 1.42729 21.4838 1.95258C21.4838 1.95258 19.964 6.31609 17.8162 9.1455C17.1222 9.96329 16.803 10.2259 16.4231 10.2259C16.2357 10.2259 15.9469 9.96329 15.9469 9.21713V2.25104C15.9469 1.35566 15.7342 0.955719 15.106 0.955719H10.4151C9.93896 0.955719 9.65528 1.37357 9.65528 1.76157C9.65528 2.6092 10.7292 2.80618 10.8407 5.19387V10.3752C10.8407 11.5093 10.6684 11.7182 10.2885 11.7182C9.27535 11.7182 6.81341 7.33683 5.35448 2.32267C5.06066 1.34969 4.77192 0.955719 4.00699 0.955719H1.02328C0.172235 0.955719 0 1.42729 0 1.95258C0 2.88378 1.01315 7.50993 4.71619 13.6224C7.1832 17.7949 10.6583 20.0573 13.8193 20.0573C15.719 20.0573 15.952 19.5558 15.952 18.6903C15.952 14.7029 15.7797 14.3268 16.7321 14.3268C17.1728 14.3268 17.9327 14.5894 19.7057 16.6011C21.732 18.9888 22.0663 20.0573 23.201 20.0573H26.1848C27.0358 20.0573 27.4664 19.5558 27.2182 18.565C26.6508 16.4817 22.816 12.1958 22.6438 11.9093C22.2031 11.2407 22.3297 10.9422 22.6438 10.3453C22.6489 10.3393 26.2911 4.29849 26.666 2.25104Z" fill="#A5AAB5"/>
</svg>
