<svg width="26" height="21" viewBox="0 0 26 21" fill="none" xmlns="http://www.w3.org/2000/svg">
<path fill-rule="evenodd" clip-rule="evenodd" d="M2.36466 8.73288C8.91649 5.9035 13.2854 4.0382 15.4714 3.13698C21.7129 0.563803 23.0098 0.116815 23.8551 0.102056C24.041 0.0988093 24.4567 0.14448 24.726 0.361052C24.9534 0.543922 25.0159 0.790953 25.0459 0.964334C25.0758 1.13771 25.1131 1.53268 25.0835 1.84129C24.7452 5.36377 23.2817 13.9119 22.5372 17.8571C22.2221 19.5265 21.6018 20.0862 21.0012 20.141C19.6961 20.2601 18.705 19.2861 17.4409 18.4647C15.4629 17.1795 14.3454 16.3795 12.4253 15.1253C10.2064 13.6759 11.6448 12.8793 12.9094 11.5775C13.2403 11.2368 18.9909 6.0523 19.1022 5.58199C19.1161 5.52317 19.129 5.30391 18.9976 5.18814C18.8662 5.07236 18.6722 5.11195 18.5323 5.14344C18.3339 5.18807 15.1739 7.25831 9.05229 11.3541C8.15533 11.9646 7.3429 12.2621 6.61499 12.2465C5.81253 12.2293 4.26891 11.7968 3.12139 11.427C1.71391 10.9736 0.595272 10.7338 0.692681 9.96364C0.743417 9.56249 1.30074 9.15224 2.36466 8.73288Z" fill="#A5AAB5"/>
</svg>
