<svg width="28" height="27" viewBox="0 0 28 27" fill="none" xmlns="http://www.w3.org/2000/svg">
<path d="M0.533203 26.6544L2.40503 19.8572C1.24779 17.8621 0.640707 15.6026 0.647031 13.2928C0.647031 6.05508 6.56606 0.170471 13.832 0.170471C17.3607 0.170471 20.6743 1.5362 23.1596 4.01592C25.6511 6.49564 27.0234 9.79354 27.0171 13.2991C27.0171 20.5369 21.098 26.4215 13.8257 26.4215H13.8194C11.6124 26.4215 9.44337 25.8676 7.51462 24.8229L0.533203 26.6544ZM7.84978 22.4502L8.24818 22.6893C9.93029 23.6837 11.859 24.2061 13.8257 24.2124H13.832C19.8712 24.2124 24.7911 19.3222 24.7911 13.3054C24.7911 10.3914 23.6528 7.65368 21.585 5.58935C19.5171 3.52501 16.7599 2.39215 13.832 2.39215C7.79287 2.38585 2.87299 7.27606 2.87299 13.2928C2.87299 15.3509 3.44845 17.3586 4.54878 19.0956L4.80806 19.511L3.7014 23.5327L7.84978 22.4502Z" fill="#A5AAB5"/>
<path d="M0.996338 26.1949L2.80493 19.6305C1.68563 17.711 1.09752 15.527 1.09752 13.2991C1.10384 6.31306 6.81419 0.629852 13.8335 0.629852C17.2421 0.629852 20.4355 1.95153 22.8386 4.34314C25.2416 6.73474 26.5633 9.91935 26.5633 13.3054C26.5633 20.2914 20.8466 25.9746 13.8335 25.9746H13.8272C11.6961 25.9746 9.60296 25.4396 7.74378 24.4326L0.996338 26.1949Z" fill="white" fill-opacity="0.07"/>
<path d="M0.533203 26.6544L2.40503 19.8572C1.24779 17.8621 0.640707 15.6026 0.647031 13.2928C0.647031 6.05508 6.56606 0.170471 13.832 0.170471C17.3607 0.170471 20.6743 1.5362 23.1596 4.01592C25.6511 6.49564 27.0234 9.79354 27.0171 13.2991C27.0171 20.5369 21.098 26.4215 13.8257 26.4215H13.8194C11.6124 26.4215 9.44337 25.8676 7.51462 24.8229L0.533203 26.6544ZM7.84978 22.4502L8.24818 22.6893C9.93029 23.6837 11.859 24.2061 13.8257 24.2124H13.832C19.8712 24.2124 24.7911 19.3222 24.7911 13.3054C24.7911 10.3914 23.6528 7.65368 21.585 5.58935C19.5171 3.52501 16.7599 2.39215 13.832 2.39215C7.79287 2.38585 2.87299 7.27606 2.87299 13.2928C2.87299 15.3509 3.44845 17.3586 4.54878 19.0956L4.80806 19.511L3.7014 23.5327L7.84978 22.4502Z" fill="#A5AAB5"/>
<path fill-rule="evenodd" clip-rule="evenodd" d="M10.5379 7.80469C10.2913 7.25714 10.032 7.24455 9.79804 7.23826C9.60833 7.23196 9.387 7.23196 9.16567 7.23196C8.94433 7.23196 8.5902 7.31378 8.28666 7.64105C7.98312 7.96833 7.13574 8.76133 7.13574 10.3788C7.13574 11.99 8.31828 13.5508 8.4827 13.7711C8.64712 13.9914 10.7656 17.4089 14.1108 18.7243C16.8933 19.8194 17.4624 19.5991 18.0632 19.5424C18.6639 19.4858 20.0109 18.7494 20.2891 17.9816C20.5611 17.2138 20.5611 16.5592 20.4789 16.4208C20.3966 16.2823 20.1753 16.2005 19.8465 16.0368C19.5176 15.8732 17.8988 15.0802 17.5952 14.9669C17.2917 14.8599 17.0704 14.8033 16.8553 15.1306C16.634 15.4578 16.0016 16.1942 15.8119 16.4145C15.6222 16.6348 15.4262 16.6599 15.0973 16.4963C14.7685 16.3327 13.7061 15.9865 12.4477 14.8662C11.4675 13.9977 10.8035 12.9215 10.6138 12.5942C10.4241 12.2669 10.5948 12.0907 10.7593 11.9271C10.9047 11.7823 11.0881 11.5431 11.2525 11.3543C11.4169 11.1655 11.4738 11.0271 11.5813 10.8068C11.6888 10.5865 11.6383 10.3977 11.556 10.2341C11.4738 10.0767 10.8288 8.45294 10.5379 7.80469Z" fill="#A5AAB5"/>
</svg>
