<svg width="23" height="23" viewBox="0 0 23 23" fill="none" xmlns="http://www.w3.org/2000/svg">
<path d="M11.7423 22.5863C9.40632 22.5863 7.23896 21.8681 5.44012 20.6438C4.59691 21.0873 2.69188 21.1872 1.86116 21.0873C0.661933 20.9436 -0.606003 19.9443 0.611966 18.9699C2.5045 17.4646 1.99233 16.8713 1.99233 16.8713C1.08666 15.2535 0.568244 13.3922 0.568244 11.4123C0.57449 5.23497 5.57753 0.231934 11.7423 0.231934C17.9134 0.231934 22.9164 5.23497 22.9164 11.406C22.9164 17.5771 17.9134 22.5863 11.7423 22.5863ZM11.7423 1.86838C6.43948 1.86838 2.14223 6.17187 2.14223 11.4747C2.14223 13.2986 2.65441 15.01 3.53509 16.4653C3.53509 16.4653 4.16594 18.0955 2.54822 19.3134C3.56007 19.657 5.6962 19.0261 5.80239 19.0261C7.43884 20.3128 9.50001 21.0811 11.7423 21.0811C17.0452 21.0811 21.3487 16.7776 21.3487 11.4747C21.3487 6.17187 17.0514 1.86838 11.7423 1.86838ZM16.8828 14.223C15.7085 14.223 14.8029 13.4485 14.8029 12.1493C14.8029 10.8501 15.6586 10.0194 16.9515 10.0194C18.1882 10.0194 19.0064 10.8689 19.0064 12.0806C19.0064 13.5484 17.9633 14.223 16.8828 14.223ZM16.9203 10.9063C16.3206 10.9063 16.0958 11.5247 16.0958 12.1181C16.0958 12.8114 16.3831 13.3298 16.9203 13.3298C17.4074 13.3298 17.7197 12.8426 17.7197 12.1181C17.7135 11.5184 17.4886 10.9063 16.9203 10.9063ZM13.4225 14.1355C13.4225 14.1355 12.9478 14.1355 12.7479 14.1355C12.4294 14.1355 12.4918 13.6733 12.4918 13.6733V11.9432C12.4918 11.356 12.3045 11.0188 11.8985 11.0188C11.6112 11.0188 11.405 11.2186 11.3238 11.456C11.2926 11.5497 11.2739 11.6808 11.2739 11.7745V13.7358C11.2739 13.7358 11.2801 14.1293 10.9303 14.1293C10.6743 14.1293 10.3745 14.1293 10.3745 14.1293C10.3745 14.1293 10.0559 14.1043 10.0559 13.6983C10.0559 13.0425 10.0559 11.8682 10.0559 11.8682C10.0559 11.356 9.87477 11.0125 9.48127 11.0125C9.16273 11.0125 8.9691 11.2624 8.89415 11.4685C8.85043 11.5684 8.84418 11.6808 8.84418 11.7808V13.6983C8.84418 13.6983 8.88791 14.1293 8.56311 14.1293C8.40072 14.1293 8.20085 14.1293 8.02596 14.1293C7.62622 14.1293 7.62622 13.6983 7.62622 13.6983V11.3873C7.62622 10.9938 7.60123 10.3442 7.60123 10.3442C7.60123 10.3442 7.59499 10.1006 7.85732 10.1006C8.01971 10.1006 8.21959 10.1006 8.38198 10.1006C8.63182 10.1006 8.67554 10.3442 8.67554 10.3442L8.70677 10.644H8.73176C8.90664 10.3879 9.25642 10.0069 9.94972 10.0069C10.4681 10.0069 10.8804 10.2692 11.0553 10.6877H11.074C11.2239 10.4816 11.405 10.3192 11.5924 10.2005C11.8173 10.0694 12.0609 10.0007 12.3607 10.0007C13.1352 10.0007 13.7161 10.5441 13.7161 11.7495C13.7161 11.7495 13.7161 13.0112 13.7161 13.692C13.7098 14.1043 13.4225 14.1355 13.4225 14.1355ZM5.65873 9.26989C5.26523 9.26989 5.0029 8.98882 5.00914 8.64529C5.0029 8.28302 5.26523 8.0082 5.66497 8.0082C6.07096 8.0082 6.3208 8.28302 6.33329 8.64529C6.33329 8.99506 6.07096 9.26989 5.65873 9.26989ZM5.29646 10.1068C5.58378 10.1068 6.021 10.1068 6.021 10.1068C6.021 10.1068 6.29582 10.1068 6.29582 10.4191C6.29582 11.1499 6.29582 13.7732 6.29582 13.7732C6.29582 13.7732 6.31456 14.1355 6.0085 14.1355C5.70245 14.1355 5.26523 14.1355 5.26523 14.1355C5.26523 14.1355 5.04662 14.123 5.04662 13.8232C5.04662 12.9238 5.04662 10.3629 5.04662 10.3629C5.04662 10.3629 5.04037 10.1068 5.29646 10.1068Z" fill="#9D9D9D"/>
</svg>
