<svg width="20" height="24" viewBox="0 0 20 24" fill="none" xmlns="http://www.w3.org/2000/svg">
<g clip-path="url(#clip0_3_3184)">
<path d="M6.60972 23.6643C3.13766 23.6443 0.265625 16.5567 0.265625 12.9471C0.265625 7.05084 4.68882 5.75999 6.39348 5.75999C7.1617 5.75999 7.982 6.06167 8.70551 6.32864C9.21146 6.51486 9.73472 6.70709 10.0258 6.70709C10.1999 6.70709 10.6104 6.54356 10.9729 6.40008C11.7458 6.09239 12.7076 5.70996 13.8275 5.70996C13.8296 5.70996 13.8322 5.70996 13.8342 5.70996C14.6705 5.70996 17.2062 5.89349 18.7306 8.18285L19.0877 8.71946L18.5738 9.10726C17.8396 9.66125 16.5 10.6718 16.5 12.6735C16.5 15.0443 18.0171 15.956 18.746 16.3945C19.0677 16.5881 19.4007 16.7876 19.4007 17.2241C19.4007 17.5092 17.1261 23.629 13.8228 23.629C13.0146 23.629 12.4432 23.3861 11.9393 23.1718C11.4294 22.9549 10.9895 22.768 10.2627 22.768C9.89423 22.768 9.42833 22.9422 8.93509 23.1271C8.26105 23.3787 7.49811 23.6643 6.63242 23.6643L6.60972 23.6643Z" fill="white"/>
<path d="M14.1777 0.334961C14.2638 3.43682 12.0454 5.58875 9.82972 5.45378C9.46461 2.97839 12.0451 0.334961 14.1777 0.334961Z" fill="white"/>
</g>
<defs>
<clipPath id="clip0_3_3184">
<rect width="19.1351" height="23.3294" fill="white" transform="translate(0.265625 0.334961)"/>
</clipPath>
</defs>
</svg>
