<svg width="24" height="20" viewBox="0 0 24 20" fill="none" xmlns="http://www.w3.org/2000/svg">
<path d="M23.585 2.91874C22.7357 3.2913 21.8307 3.53824 20.8872 3.65815C21.8578 3.07861 22.5987 2.16791 22.947 1.07021C22.042 1.60978 21.0428 1.99091 19.9779 2.20359C19.1186 1.2886 17.8939 0.721924 16.5578 0.721924C13.9656 0.721924 11.8787 2.82596 11.8787 5.40533C11.8787 5.77647 11.9101 6.13332 11.9871 6.47305C8.09453 6.2832 4.65013 4.41755 2.33626 1.57553C1.9323 2.2764 1.69534 3.07862 1.69534 3.94221C1.69534 5.56377 2.53039 7.0012 3.77511 7.8334C3.02285 7.81913 2.28487 7.60073 1.65965 7.25672C1.65965 7.27099 1.65965 7.28955 1.65965 7.30811C1.65965 9.58344 3.28264 11.4734 5.41095 11.9087C5.02983 12.0129 4.61444 12.0629 4.18336 12.0629C3.8836 12.0629 3.58098 12.0458 3.29692 11.983C3.90358 13.8372 5.62507 15.2004 7.672 15.2446C6.07898 16.4908 4.05631 17.2416 1.86663 17.2416C1.48265 17.2416 1.11437 17.2245 0.746094 17.1774C2.82015 18.5149 5.27819 19.2786 7.92894 19.2786C16.5449 19.2786 21.2555 12.1414 21.2555 5.9549C21.2555 5.74792 21.2483 5.54808 21.2383 5.34967C22.1676 4.69019 22.9484 3.86656 23.585 2.91875L23.585 2.91874Z" fill="white"/>
</svg>
