<svg width="13" height="13" viewBox="0 0 13 13" fill="none" xmlns="http://www.w3.org/2000/svg">
<path d="M12.1928 1.52181C12.0092 1.33666 11.7907 1.1897 11.55 1.08942C11.3093 0.989133 11.0511 0.9375 10.7903 0.9375C10.5295 0.9375 10.2714 0.989133 10.0306 1.08942C9.78993 1.1897 9.57145 1.33666 9.38782 1.52181L6.83961 4.08977L4.29141 1.52181C3.91944 1.14984 3.41495 0.940872 2.88891 0.940872C2.36287 0.940872 1.85837 1.14984 1.48641 1.52181C1.11444 1.89377 0.905472 2.39827 0.905472 2.92431C0.905472 3.45035 1.11444 3.95484 1.48641 4.32681L4.05437 6.87501L1.48641 9.42322C1.30126 9.60685 1.1543 9.82533 1.05402 10.066C0.953732 10.3068 0.9021 10.5649 0.9021 10.8257C0.9021 11.0865 0.953732 11.3447 1.05402 11.5854C1.1543 11.8261 1.30126 12.0446 1.48641 12.2282C1.67004 12.4134 1.88852 12.5603 2.12923 12.6606C2.36995 12.7609 2.62814 12.8125 2.88891 12.8125C3.14968 12.8125 3.40787 12.7609 3.64858 12.6606C3.8893 12.5603 4.10777 12.4134 4.29141 12.2282L6.83961 9.66026L9.38782 12.2282C9.57145 12.4134 9.78993 12.5603 10.0306 12.6606C10.2714 12.7609 10.5295 12.8125 10.7903 12.8125C11.0511 12.8125 11.3093 12.7609 11.55 12.6606C11.7907 12.5603 12.0092 12.4134 12.1928 12.2282C12.378 12.0446 12.5249 11.8261 12.6252 11.5854C12.7255 11.3447 12.7771 11.0865 12.7771 10.8257C12.7771 10.5649 12.7255 10.3068 12.6252 10.066C12.5249 9.82533 12.378 9.60685 12.1928 9.42322L9.62486 6.87501L12.1928 4.32681C12.378 4.14317 12.5249 3.9247 12.6252 3.68398C12.7255 3.44327 12.7771 3.18508 12.7771 2.92431C12.7771 2.66354 12.7255 2.40535 12.6252 2.16463C12.5249 1.92392 12.378 1.70544 12.1928 1.52181Z" fill="#212429"/>
</svg>
