<svg width="47" height="40" viewBox="0 0 47 40" fill="none" xmlns="http://www.w3.org/2000/svg">
<path d="M34.3389 20.5796C33.8407 20.5796 33.4365 20.9752 33.4365 21.4628C33.4365 21.9504 33.8407 22.346 34.3389 22.346H44.7259V37.4202H2.2755V22.346H13.1137C13.6166 22.346 14.0208 21.9504 14.0208 21.4628C14.0208 20.9752 13.6166 20.5796 13.1137 20.5796H0.470703V39.1912H46.5307V20.5796H34.3389Z" fill="white"/>
<path d="M22.4626 33.8C22.6694 34.007 22.9467 34.1082 23.224 34.1082C23.2287 34.1082 23.2334 34.1036 23.2428 34.1036C23.2522 34.1036 23.2569 34.1082 23.2616 34.1082C23.5389 34.1082 23.8162 34.0024 24.023 33.8L30.0531 27.8982C30.4761 27.4842 30.4761 26.8172 30.0531 26.4032C29.6301 25.9892 28.9486 25.9892 28.5256 26.4032L24.3426 30.5018V1.86684C24.3426 1.28264 23.8585 0.808838 23.2616 0.808838C22.6647 0.808838 22.1806 1.28264 22.1806 1.86684V30.534L17.96 26.4032C17.537 25.9892 16.8555 25.9892 16.4325 26.4032C16.0095 26.8172 16.0095 27.4842 16.4325 27.8982L22.4626 33.8Z" fill="white"/>
</svg>
