<svg width="11" height="13" viewBox="0 0 11 13" fill="none" xmlns="http://www.w3.org/2000/svg">
<path fill-rule="evenodd" clip-rule="evenodd" d="M2.49593 2.60469C2.88944 2.25487 3.35747 1.97717 3.87309 1.78758C4.38871 1.598 4.94173 1.50026 5.50033 1.5C6.62658 1.5 7.70749 1.89687 8.50472 2.60469C9.30315 3.31442 9.75094 4.27404 9.75033 5.27406C9.75033 7.00094 8.66516 8.56406 7.53466 9.71812C7.05826 10.2021 6.54176 10.6542 5.98943 11.0706C5.82974 11.1915 5.66665 11.3088 5.50033 11.4225C5.33407 11.3087 5.17099 11.1914 5.01122 11.0706C4.45889 10.6542 3.94239 10.2021 3.46599 9.71812C2.33549 8.56406 1.25033 7.00094 1.25033 5.27406C1.25033 4.2725 1.6987 3.3125 2.49593 2.60469ZM5.29633 12.0678L5.50033 11.8125L5.70433 12.0678C5.64458 12.1048 5.57334 12.1247 5.50033 12.1247C5.42731 12.1247 5.35607 12.1048 5.29633 12.0678ZM5.29633 12.0678L5.50033 11.8125L5.70433 12.0678L5.70574 12.0672L5.70929 12.065L5.71991 12.0578L5.7617 12.0312C5.79712 12.0081 5.84883 11.9744 5.91399 11.93C6.04433 11.8419 6.2292 11.7122 6.44985 11.5456C7.02906 11.1088 7.57065 10.6346 8.07016 10.1269C9.24174 8.93125 10.4587 7.22469 10.4587 5.27375C10.4587 4.10812 9.93662 2.98937 9.00729 2.16437C8.54794 1.75606 8.00162 1.43193 7.39975 1.21065C6.79788 0.989365 6.15235 0.875293 5.50033 0.875C4.84832 0.875252 4.20281 0.989274 3.60095 1.2105C2.99908 1.43173 2.45274 1.7558 1.99337 2.16406C1.06312 2.99095 0.541368 4.10896 0.541993 5.27406C0.541993 7.22469 1.75891 8.93125 2.93049 10.1269C3.43 10.6346 3.9716 11.1088 4.55081 11.5456C4.77181 11.7122 4.95633 11.8419 5.08666 11.93C5.15059 11.9735 5.21517 12.0162 5.28039 12.0581L5.29172 12.065L5.29491 12.0672L5.29633 12.0678ZM4.08366 5.25C4.08366 4.91848 4.23292 4.60054 4.49859 4.36612C4.76427 4.1317 5.1246 4 5.50033 4C5.87605 4 6.23638 4.1317 6.50206 4.36612C6.76774 4.60054 6.91699 4.91848 6.91699 5.25C6.91699 5.58152 6.76774 5.89946 6.50206 6.13388C6.23638 6.3683 5.87605 6.5 5.50033 6.5C5.1246 6.5 4.76427 6.3683 4.49859 6.13388C4.23292 5.89946 4.08366 5.58152 4.08366 5.25ZM5.50033 3.375C4.93674 3.375 4.39624 3.57254 3.99772 3.92417C3.59921 4.27581 3.37533 4.75272 3.37533 5.25C3.37533 5.74728 3.59921 6.22419 3.99772 6.57582C4.39624 6.92746 4.93674 7.125 5.50033 7.125C6.06391 7.125 6.60441 6.92746 7.00293 6.57582C7.40144 6.22419 7.62533 5.74728 7.62533 5.25C7.62533 4.75272 7.40144 4.27581 7.00293 3.92417C6.60441 3.57254 6.06391 3.375 5.50033 3.375Z" fill="#3CBF32"/>
</svg>
