<svg width="11" height="11" viewBox="0 0 11 11" fill="none" xmlns="http://www.w3.org/2000/svg">
<path d="M1.36059 0.422934L1.36064 0.422991C1.36063 0.422972 1.36061 0.422952 1.36059 0.422934ZM1.36059 0.422934C1.36025 0.422544 1.35992 0.422153 1.35958 0.42176L1.35958 0.421762L1.36059 0.422934ZM6.02842 5.17315L5.74609 5.5L6.02842 5.82685L10.0651 10.5H9.57284L5.8784 6.22256L5.5 5.78445L5.1216 6.22256L1.42716 10.5H0.934853L4.97158 5.82685L5.25391 5.5L4.97158 5.17315L0.934852 0.5H1.42716L5.1216 4.77744L5.5 5.21555L5.8784 4.77744L9.57284 0.5H10.0651L6.02842 5.17315Z" fill="black" fill-opacity="0.45" stroke="white"/>
</svg>
