<svg width="28" height="24" viewBox="0 0 28 24" fill="none" xmlns="http://www.w3.org/2000/svg">
<path d="M14 23.7999L13.5129 23.4127C3.04113 15.2814 0.199951 12.4161 0.199951 7.76962C0.199951 3.89757 3.44701 0.799927 7.50583 0.799927C10.8341 0.799927 12.7011 2.58107 14 3.97501C15.2988 2.58107 17.1658 0.799927 20.4941 0.799927C24.5529 0.799927 27.8 3.89757 27.8 7.76962C27.8 12.4161 24.9588 15.2814 14.487 23.4127L14 23.7999ZM7.50583 2.34875C4.33995 2.34875 1.82348 4.74942 1.82348 7.76962C1.82348 11.7191 4.42113 14.3521 14 21.7865C23.5788 14.3521 26.1764 11.7191 26.1764 7.76962C26.1764 4.74942 23.66 2.34875 20.4941 2.34875C17.6529 2.34875 16.1105 3.97501 14.8929 5.29151L14 6.29824L13.107 5.29151C11.8894 3.97501 10.347 2.34875 7.50583 2.34875Z" fill="#3CBF32"/>
</svg>
