<svg width="20" height="20" viewBox="0 0 20 20" fill="none" xmlns="http://www.w3.org/2000/svg">
<path d="M19.0555 10.1576C19.0555 10.7099 18.6078 11.1576 18.0555 11.1576H10.8889V18.5258C10.8889 19.0781 10.4412 19.5258 9.88888 19.5258H9.16666C8.61438 19.5258 8.16666 19.0781 8.16666 18.5258V11.1576H1C0.447716 11.1576 0 10.7099 0 10.1576V9.3682C0 8.81591 0.447715 8.3682 1 8.3682H8.16666V1C8.16666 0.447716 8.61438 0 9.16666 0H9.88888C10.4412 0 10.8889 0.447715 10.8889 1V8.3682H18.0555C18.6078 8.3682 19.0555 8.81591 19.0555 9.3682V10.1576Z" fill="white"/>
</svg>
