<svg width="34" height="34" viewBox="0 0 34 34" fill="none" xmlns="http://www.w3.org/2000/svg">
<g clip-path="url(#clip0_42_1888)">
<path fill-rule="evenodd" clip-rule="evenodd" d="M20.9405 26.1756C20.9405 26.4533 20.8302 26.7196 20.6338 26.916C20.4375 27.1123 20.1711 27.2226 19.8935 27.2226H3.14107C2.86338 27.2226 2.59707 27.1123 2.40071 26.916C2.20436 26.7196 2.09405 26.4533 2.09405 26.1756V7.32918C2.09405 7.05149 2.20436 6.78518 2.40071 6.58882C2.59707 6.39247 2.86338 6.28216 3.14107 6.28216H19.8935C20.1711 6.28216 20.4375 6.39247 20.6338 6.58882C20.8302 6.78518 20.9405 7.05149 20.9405 7.32918V11.5173C20.9405 11.795 21.0508 12.0613 21.2471 12.2576C21.4435 12.454 21.7098 12.5643 21.9875 12.5643C22.2652 12.5643 22.5315 12.454 22.7279 12.2576C22.9242 12.0613 23.0345 11.795 23.0345 11.5173V7.32918C23.0345 6.49612 22.7036 5.69717 22.1145 5.10811C21.5255 4.51904 20.7265 4.18811 19.8935 4.18811H3.14107C2.30801 4.18811 1.50906 4.51904 0.919999 5.10811C0.330933 5.69717 0 6.49612 0 7.32918L0 26.1756C0 27.0087 0.330933 27.8076 0.919999 28.3967C1.50906 28.9858 2.30801 29.3167 3.14107 29.3167H19.8935C20.7265 29.3167 21.5255 28.9858 22.1145 28.3967C22.7036 27.8076 23.0345 27.0087 23.0345 26.1756V21.9875C23.0345 21.7098 22.9242 21.4435 22.7279 21.2472C22.5315 21.0508 22.2652 20.9405 21.9875 20.9405C21.7098 20.9405 21.4435 21.0508 21.2471 21.2472C21.0508 21.4435 20.9405 21.7098 20.9405 21.9875V26.1756Z" fill="#FF4646"/>
<path fill-rule="evenodd" clip-rule="evenodd" d="M33.199 17.4937C33.2965 17.3964 33.3739 17.2809 33.4267 17.1537C33.4794 17.0265 33.5066 16.8901 33.5066 16.7524C33.5066 16.6146 33.4794 16.4783 33.4267 16.3511C33.3739 16.2239 33.2965 16.1083 33.199 16.0111L26.9169 9.72893C26.7203 9.53233 26.4536 9.42188 26.1756 9.42188C25.8975 9.42188 25.6309 9.53233 25.4343 9.72893C25.2377 9.92553 25.1272 10.1922 25.1272 10.4702C25.1272 10.7483 25.2377 11.0149 25.4343 11.2115L29.9302 15.7053H11.5172C11.2396 15.7053 10.9732 15.8157 10.7769 16.012C10.5805 16.2084 10.4702 16.4747 10.4702 16.7524C10.4702 17.0301 10.5805 17.2964 10.7769 17.4927C10.9732 17.6891 11.2396 17.7994 11.5172 17.7994H29.9302L25.4343 22.2932C25.2377 22.4898 25.1272 22.7565 25.1272 23.0345C25.1272 23.3126 25.2377 23.5792 25.4343 23.7758C25.6309 23.9724 25.8975 24.0829 26.1756 24.0829C26.4536 24.0829 26.7203 23.9724 26.9169 23.7758L33.199 17.4937V17.4937Z" fill="#FF4646"/>
</g>
<defs>
<clipPath id="clip0_42_1888">
<rect width="33.5048" height="33.5048" fill="white"/>
</clipPath>
</defs>
</svg>
