<svg width="11" height="15" viewBox="0 0 11 15" fill="none" xmlns="http://www.w3.org/2000/svg">
<path d="M5.70361 1.55078C5.70361 1.27464 5.47976 1.05078 5.20361 1.05078C4.92747 1.05078 4.70361 1.27464 4.70361 1.55078L5.70361 1.55078ZM4.85006 11.9043C5.04532 12.0996 5.3619 12.0996 5.55717 11.9043L8.73915 8.72235C8.93441 8.52709 8.93441 8.21051 8.73915 8.01525C8.54388 7.81999 8.2273 7.81999 8.03204 8.01525L5.20361 10.8437L2.37519 8.01525C2.17992 7.81999 1.86334 7.81999 1.66808 8.01525C1.47282 8.21051 1.47282 8.52709 1.66808 8.72235L4.85006 11.9043ZM5.20361 7.0771H4.70361H5.20361ZM4.70361 1.55078V7.0771H5.70361V1.55078L4.70361 1.55078ZM4.70361 7.0771L4.70361 11.5508H5.70361L5.70361 7.0771H4.70361Z" fill="#858383"/>
<path d="M1.20361 13.0508C0.927471 13.0508 0.703613 13.2746 0.703613 13.5508C0.703613 13.8269 0.927471 14.0508 1.20361 14.0508V13.0508ZM9.20361 14.0508C9.47976 14.0508 9.70361 13.8269 9.70361 13.5508C9.70361 13.2746 9.47976 13.0508 9.20361 13.0508V14.0508ZM1.20361 14.0508H9.20361V13.0508H1.20361V14.0508Z" fill="#858383"/>
</svg>
