<svg width="27" height="30" viewBox="0 0 27 30" fill="none" xmlns="http://www.w3.org/2000/svg">
<path d="M21.1443 8.63731L15.4823 2.27367C15.3206 2.09186 15.1588 2.00095 14.9161 2.00095H6.82755C5.93781 2.00095 5.20984 2.81913 5.20984 3.81913V25.6373C5.20984 26.6373 5.93781 27.4555 6.82755 27.4555H19.7693C20.659 27.4555 21.387 26.6373 21.387 25.6373V9.27367C21.387 9.00095 21.3061 8.81913 21.1443 8.63731ZM14.9161 4.18276L19.4457 9.27367H14.9161V4.18276ZM19.7693 25.6373H6.82755V3.81913H13.2984V9.27367C13.2984 10.2737 14.0264 11.0919 14.9161 11.0919H19.7693V25.6373Z" fill="#3CBF32"/>
<path d="M8.44525 20.1828H18.1515V22.001H8.44525V20.1828Z" fill="#3CBF32"/>
<path d="M8.44525 14.7282H18.1515V16.5464H8.44525V14.7282Z" fill="#3CBF32"/>
</svg>
