<svg width="10" height="14" viewBox="0 0 10 14" fill="none" xmlns="http://www.w3.org/2000/svg">
<path d="M4.70361 11.0508C4.70361 11.3269 4.92747 11.5508 5.20361 11.5508C5.47976 11.5508 5.70361 11.3269 5.70361 11.0508L4.70361 11.0508ZM5.55717 0.697227C5.3619 0.501966 5.04532 0.501966 4.85006 0.697227L1.66808 3.87921C1.47282 4.07447 1.47282 4.39105 1.66808 4.58631C1.86334 4.78158 2.17992 4.78158 2.37519 4.58631L5.20361 1.75789L8.03204 4.58631C8.2273 4.78158 8.54388 4.78158 8.73915 4.58631C8.93441 4.39105 8.93441 4.07447 8.73915 3.87921L5.55717 0.697227ZM5.20361 5.52447H5.70361H5.20361ZM5.70361 11.0508V5.52447H4.70361V11.0508L5.70361 11.0508ZM5.70361 5.52447L5.70361 1.05078H4.70361L4.70361 5.52447H5.70361Z" fill="#858383"/>
<path d="M1.20361 12.5508C0.927471 12.5508 0.703613 12.7746 0.703613 13.0508C0.703613 13.3269 0.927471 13.5508 1.20361 13.5508V12.5508ZM9.20361 13.5508C9.47976 13.5508 9.70361 13.3269 9.70361 13.0508C9.70361 12.7746 9.47976 12.5508 9.20361 12.5508V13.5508ZM1.20361 13.5508H9.20361V12.5508H1.20361V13.5508Z" fill="#858383"/>
</svg>
