<svg width="26" height="26" viewBox="0 0 26 26" fill="none" xmlns="http://www.w3.org/2000/svg">
<path d="M13 0C5.82021 0 0 5.82036 0 13.0003C8.88799e-05 14.7076 0.336432 16.3981 0.989825 17.9753C1.64322 19.5525 2.60087 20.9856 3.80809 22.1928C5.01532 23.3999 6.44847 24.3574 8.02574 25.0107C9.60301 25.6639 11.2935 26.0001 13.0007 26C14.7079 25.9999 16.3983 25.6636 17.9755 25.0102C19.5527 24.3567 20.9858 23.3991 22.1929 22.1918C23.4 20.9846 24.3575 19.5514 25.0107 17.9741C25.6639 16.3967 26.0001 14.7062 26 12.999C26 5.82036 20.1784 0 13 0ZM12.7955 20.5825H12.7265C11.6675 20.5514 10.92 19.77 10.9511 18.7259C10.9809 17.6994 11.746 16.9533 12.7698 16.9533L12.8321 16.956C13.9208 16.9871 14.6602 17.7604 14.6291 18.8342C14.5979 19.8634 13.8464 20.5825 12.7955 20.5825ZM17.2521 11.7382C17.0029 12.0903 16.4558 12.5318 15.7652 13.0694L15.0042 13.5935C14.5871 13.9185 14.3352 14.2259 14.2418 14.5252C14.1659 14.7608 14.1307 14.8244 14.124 15.3052V15.4271H11.2193L11.2274 15.1806C11.264 14.1731 11.2883 13.5772 11.7068 13.0857C12.3635 12.3165 13.8125 11.3821 13.8734 11.3428C14.0722 11.1976 14.2456 11.0205 14.3867 10.8187C14.6914 10.3976 14.8254 10.0671 14.8254 9.74484C14.8254 9.29253 14.6927 8.87408 14.4286 8.50439C14.1741 8.14417 13.6906 7.96542 12.9919 7.96542C12.2985 7.96542 11.8232 8.1848 11.5402 8.6371C11.2477 9.09888 11.1001 9.58504 11.1001 10.082V10.2066H8.10604L8.11146 10.0766C8.18865 8.24438 8.84406 6.92403 10.0547 6.15349C10.8171 5.66463 11.7664 5.41681 12.8727 5.41681C14.319 5.41681 15.5431 5.7689 16.5046 6.46225C17.4809 7.16508 17.9752 8.21865 17.9752 9.59181C17.9739 10.3596 17.7315 11.0814 17.2521 11.7382Z" fill="#3CBF32"/>
</svg>
