<svg width="25" height="25" viewBox="0 0 25 25" fill="none" xmlns="http://www.w3.org/2000/svg">
<path fill-rule="evenodd" clip-rule="evenodd" d="M2.4751 9.54815C2.4751 5.60564 5.5434 2.47461 9.24965 2.47461C12.9559 2.47461 16.0242 5.60564 16.0242 9.54815C16.0242 13.4907 12.9559 16.6217 9.24965 16.6217C5.5434 16.6217 2.4751 13.4907 2.4751 9.54815ZM9.24965 0.474609C4.36837 0.474609 0.475098 4.57287 0.475098 9.54815C0.475098 14.5234 4.36837 18.6217 9.24965 18.6217C11.2921 18.6217 13.1615 17.9042 14.6451 16.7052L22.2848 24.0839C22.6821 24.4676 23.3262 24.4676 23.7234 24.0839C24.1206 23.7003 24.1206 23.0782 23.7234 22.6945L16.0495 15.2826C17.286 13.7147 18.0242 11.7146 18.0242 9.54815C18.0242 4.57287 14.1309 0.474609 9.24965 0.474609Z" fill="#3CBF32" fill-opacity="0.75"/>
</svg>
