<svg width="20" height="20" viewBox="0 0 20 20" fill="none" xmlns="http://www.w3.org/2000/svg">
<path d="M0 10C0 15.5231 4.47633 20 10 20C15.5225 20 20 15.5231 20 10C20 4.47691 15.5225 0 10 0C4.47633 0 0 4.47691 0 10ZM18.4375 10C18.4375 14.66 14.6594 18.4375 10 18.4375C5.33938 18.4375 1.5625 14.66 1.5625 10C1.5625 5.33996 5.33938 1.5625 10 1.5625C14.6594 1.5625 18.4375 5.33996 18.4375 10Z" fill="#3CBF32"/>
<path d="M5.80811 8.07374C5.56396 8.31788 5.56396 8.71338 5.80811 8.95752L9.55811 12.7075C9.80225 12.9517 10.1978 12.9517 10.4419 12.7075L14.1919 8.95752C14.314 8.83545 14.375 8.67553 14.375 8.51561C14.375 8.35569 14.314 8.19577 14.1919 8.07374C13.9477 7.82959 13.5522 7.82959 13.3081 8.07374L9.99998 11.3818L6.69186 8.0737C6.44771 7.82959 6.05225 7.82959 5.80811 8.07374Z" fill="#3CBF32"/>
</svg>
